<?xml version="1.0" encoding="UTF-8" standalone="no"?>
<!-- Generator: Adobe Illustrator 14.0.0, SVG Export Plug-In . SVG Version: 6.00 Build 43363)  -->

<svg
   xmlns:dc="http://purl.org/dc/elements/1.1/"
   xmlns:cc="http://creativecommons.org/ns#"
   xmlns:rdf="http://www.w3.org/1999/02/22-rdf-syntax-ns#"
   xmlns:svg="http://www.w3.org/2000/svg"
   xmlns="http://www.w3.org/2000/svg"
   xmlns:sodipodi="http://sodipodi.sourceforge.net/DTD/sodipodi-0.dtd"
   xmlns:inkscape="http://www.inkscape.org/namespaces/inkscape"
   version="1.1"
   x="0px"
   y="0px"
   width="177.39999"
   height="316.60001"
   viewBox="0 0 177.39999 316.60001"
   enable-background="new 0 0 360 360"
   xml:space="preserve"
   id="svg6939"
   sodipodi:docname="stout.svg"
   inkscape:version="0.92.3 (2405546, 2018-03-11)"><metadata
   id="metadata6945"><rdf:RDF><cc:Work
       rdf:about=""><dc:format>image/svg+xml</dc:format><dc:type
         rdf:resource="http://purl.org/dc/dcmitype/StillImage" /></cc:Work></rdf:RDF></metadata><defs
   id="defs6943" /><sodipodi:namedview
   pagecolor="#ffffff"
   bordercolor="#666666"
   borderopacity="1"
   objecttolerance="10"
   gridtolerance="10"
   guidetolerance="10"
   inkscape:pageopacity="0"
   inkscape:pageshadow="2"
   inkscape:window-width="640"
   inkscape:window-height="480"
   id="namedview6941"
   showgrid="false"
   inkscape:zoom="0.65555556"
   inkscape:cx="91"
   inkscape:cy="160.7"
   inkscape:window-x="0"
   inkscape:window-y="0"
   inkscape:window-maximized="0"
   inkscape:current-layer="svg6939" />
<g
   id="Layer_9"
   display="none"
   style="display:none"
   transform="translate(-89,-24.1)">
	<rect
   x="-73"
   y="-26"
   display="inline"
   width="462"
   height="435"
   id="rect6442"
   style="display:inline;fill:#30d6ff" />
</g>
<g
   id="Altbier"
   display="none"
   style="display:none"
   transform="translate(-89,-24.1)">
	<rect
   x="123"
   y="94"
   display="inline"
   width="112"
   height="47.5"
   id="rect6445"
   style="display:inline;fill:#ffffff" />
	<path
   display="inline"
   d="m 238.5,122.1 h -116 v 32 l 1.4,167.5 c 0,0 11.8,9.7 55.8,9.7 44,0 54.8,-9.7 54.8,-9.7 l 3.9,-192.3 v -7.2 z"
   id="path6447"
   inkscape:connector-curvature="0"
   style="display:inline;fill:#c26700" />
	<g
   display="inline"
   id="g6451"
   style="display:inline">
		<path
   d="m 177.7,83 c 27,0 45,3.6 53.4,5.8 1.4,10.2 3.9,32.2 3.9,58.2 0,31.6 -3.7,141.7 -4.7,171.1 -8.7,2.2 -26.1,5.6 -50.6,5.6 -24.5,0 -42.6,-3.5 -51.6,-5.7 -1,-29.5 -4.7,-139.8 -4.7,-171 0,-25.8 2.6,-48.2 4,-58.4 7.5,-2.2 23.9,-5.6 50.3,-5.6 m 0,-10 c -41.2,0 -59.3,8 -59.3,8 0,0 -5,29.5 -5,66 0,36.5 5,178.7 5,178.7 0,0 23.2,8 61.3,8 38.1,0 60.3,-8 60.3,-8 0,0 5,-141.7 5,-178.7 0,-37 -5,-66 -5,-66 0,0 -21.2,-8 -62.3,-8 z"
   id="path6449"
   inkscape:connector-curvature="0"
   style="fill:#d0d2d3" />
	</g>
	<path
   display="inline"
   d="m 141,108 c 0,0 0,5 0,39 0,34 3,154 3,154"
   id="path6453"
   inkscape:connector-curvature="0"
   style="display:inline;fill:none;stroke:#fbfeff;stroke-width:10;stroke-linecap:round" />
</g>
<g
   id="Barleywine"
   display="none"
   style="display:none"
   transform="translate(-89,-24.1)">
	<g
   display="inline"
   id="g6460"
   style="display:inline">
		<path
   d="M 118.3,159.9 266,163 247.6,121 H 138 c -4.1,6.5 -14,23.1 -19.7,38.9 z"
   id="path6456"
   inkscape:connector-curvature="0"
   style="fill:#e8cda2" />
		<path
   d="m 126.2,121 h -15.7 l -14,38.5 11.3,0.2 c 4.8,-14.6 13,-29.6 18.4,-38.7 z"
   id="path6458"
   inkscape:connector-curvature="0"
   style="fill:#e8cda2" />
	</g>
	<path
   display="inline"
   d="M 257.3,140 H 127.1 c -6.5,12.6 -13,28.1 -13,39.5 0,26.9 13.7,49 36.6,59.2 2.5,1.1 3.7,4.1 2.5,6.6 -0.8,1.9 -2.7,3 -4.6,3 -0.7,0 -1.4,-0.1 -2,-0.4 -26.6,-11.8 -42.5,-37.3 -42.5,-68.3 0,-11.8 5.7,-26.7 11.9,-39.5 h -14.2 c -6.5,13.1 -12,27.8 -12,40.2 0,48.3 33.7,87.5 90,87.5 56.3,0 90,-39.2 90,-87.5 -0.1,-12.6 -5.8,-27.2 -12.5,-40.3 z"
   id="path6462"
   inkscape:connector-curvature="0"
   style="display:inline;fill:#915600" />
	<path
   display="inline"
   d="m 236.7,104.5 c 0,0 32.9,44.7 32.9,75.7 0,48.3 -33.7,87.5 -90,87.5 -56.3,0 -90,-39.2 -90,-87.5 0,-30.2 31,-74.6 31,-74.6 0,0 21.5,-3.9 59,-3.9 37.5,0 57.1,2.8 57.1,2.8 z"
   id="path6464"
   inkscape:connector-curvature="0"
   style="display:inline;fill:none;stroke:#d0d2d3;stroke-width:10" />
	<line
   display="inline"
   x1="179.7"
   y1="267.70001"
   x2="179.7"
   y2="318.39999"
   id="line6466"
   style="display:inline;fill:none;stroke:#d0d2d3;stroke-width:15" />
	<path
   display="inline"
   d="m 244.6,327.7 c 0,6 -29,7.9 -64.8,7.9 -35.8,0 -64.8,-1.9 -64.8,-7.9 0,-6 64.8,-7.3 64.8,-18.9 0,11.6 64.8,12.9 64.8,18.9 z"
   id="path6468"
   inkscape:connector-curvature="0"
   style="display:inline;fill:#d0d2d3" />
</g>
<g
   id="Berliner_Weisse"
   display="none"
   style="display:none"
   transform="translate(-89,-24.1)">
	<polygon
   display="inline"
   points="93,114.7 180,108.7 266.5,114.7 266.5,147.5 93,147.5 "
   id="polygon6471"
   style="display:inline;fill:#ffffff" />
	<path
   display="inline"
   d="m 269.7,160.2 c 0,-12.4 1.7,-7.1 -4.7,-20.2 H 93 c -6.1,13.1 -3.3,7.8 -3.3,20.2 0,48.3 33.7,87.5 90,87.5 56.3,0 90,-39.2 90,-87.5 z"
   id="path6473"
   inkscape:connector-curvature="0"
   style="display:inline;fill:#ffdd30" />
	<path
   display="inline"
   d="m 264.7,114.5 c 0,0 4.9,14.7 4.9,45.7 0,48.3 -33.7,87.5 -90,87.5 -56.3,0 -90,-39.2 -90,-87.5 0,-30.2 3,-44.6 3,-44.6 0,0 22.2,-5.9 87,-5.9 64.8,0 85.1,4.8 85.1,4.8 z"
   id="path6475"
   inkscape:connector-curvature="0"
   style="display:inline;fill:none;stroke:#d0d2d3;stroke-width:10" />
	<line
   display="inline"
   x1="179.7"
   y1="247.7"
   x2="179.7"
   y2="318.39999"
   id="line6477"
   style="display:inline;fill:none;stroke:#d0d2d3;stroke-width:25" />
	<path
   display="inline"
   d="m 247.2,328.6 c 0,7 -30.2,9.2 -67.5,9.2 -37.3,0 -67.5,-2.2 -67.5,-9.2 0,-7 67.5,-8.5 67.5,-21.9 0.1,13.4 67.5,14.9 67.5,21.9 z"
   id="path6479"
   inkscape:connector-curvature="0"
   style="display:inline;fill:#d0d2d3" />
	<path
   display="inline"
   d="m 200.1,284 c 0,-5.7 -2.6,-10.7 -6.8,-14.2 -0.7,-0.7 -1.2,-1.7 -1.2,-2.8 H 189 c -2.8,-1.4 -6,-2.2 -9.4,-2.2 -3.4,0 -6.6,0.8 -9.4,2.2 h -3.1 c 0,1.1 -0.5,2.1 -1.2,2.8 -4.1,3.5 -6.8,8.5 -6.8,14.2 0,5.6 2.6,10.6 6.6,14.1 0.8,0.7 1.3,1.8 1.3,2.9 h 3.2 c 2.8,1.3 6,2.1 9.3,2.1 3.3,0 6.5,-0.8 9.3,-2.1 h 3.2 c 0,-1.1 0.5,-2.2 1.3,-2.9 4.2,-3.5 6.8,-8.5 6.8,-14.1 z"
   id="path6481"
   inkscape:connector-curvature="0"
   style="display:inline;fill:#d0d2d3" />
	<path
   display="inline"
   d="m 178.7,232.8 c -45.7,-1 -73,-33.3 -73,-73 0,-10.7 0.4,-19 1,-25.1"
   id="path6483"
   inkscape:connector-curvature="0"
   style="display:inline;fill:none;stroke:#ffffff;stroke-width:10;stroke-linecap:round" />
</g>
<g
   id="Biere_de_Garde"
   display="none"
   style="display:none"
   transform="translate(-89,-24.1)">
	<g
   display="inline"
   id="g6498"
   style="display:inline">
		<polygon
   points="120.9,65.4 118.6,44.5 179.7,39.7 238.7,44.5 238.7,68.5 244.6,97.7 173.5,104 115,87.5 "
   id="polygon6486"
   style="fill:#ffffff" />
		<path
   d="m 99.7,160.2 c 0,48.3 31.3,77.5 80,77.5 48.7,0 80,-29.2 80,-77.5 0,-19.6 -11.5,-46.5 -18,-72.6 H 116 c -5.8,26.3 -16.3,53.4 -16.3,72.6 z"
   id="path6488"
   inkscape:connector-curvature="0"
   style="fill:#de9000" />
		<path
   d="m 238.7,44.5 c -7.8,35.8 20.9,84.7 20.9,115.7 0,48.3 -31.3,77.5 -80,77.5 -48.7,0 -80,-29.2 -80,-77.5 0,-30.2 26,-79.9 19,-115.7 15.2,-1.9 23.5,-4.8 61,-4.8 37.5,0 45.9,2.3 59.1,4.8 z"
   id="path6490"
   inkscape:connector-curvature="0"
   style="fill:none;stroke:#d0d2d3;stroke-width:10" />
		<path
   d="m 145.2,210.4 c -15.7,-11.5 -25.7,-25.3 -25.7,-49.5 0,-26.4 23.7,-74.7 17.6,-106"
   id="path6492"
   inkscape:connector-curvature="0"
   style="fill:none;stroke:#ffffff;stroke-width:10;stroke-linecap:round" />
		<line
   x1="179.7"
   y1="237.7"
   x2="179.7"
   y2="316"
   id="line6494"
   style="fill:none;stroke:#d0d2d3;stroke-width:15" />
		<path
   d="m 244.6,324.7 c 0,6 -29,10.9 -64.8,10.9 -35.8,0 -64.8,-4.9 -64.8,-10.9 0,-6 64.8,-11.3 64.8,-22.9 0,11.6 64.8,16.9 64.8,22.9 z"
   id="path6496"
   inkscape:connector-curvature="0"
   style="fill:#d0d2d3" />
	</g>
</g>
<g
   id="Bitter"
   display="none"
   style="display:none"
   transform="translate(-89,-24.1)">
	<polygon
   display="inline"
   points="268.8,96 272.5,38 216.4,28.5 150.9,28.5 87,35.5 92.2,89.5 "
   id="polygon6501"
   style="display:inline;fill:#ffffff" />
	<path
   display="inline"
   d="M 271,77.7 H 91 l -13.9,38.9 c 0,0 17.9,33 17.9,33 l 18.3,176.1 c 0,0 18.3,10 66.3,10 48,0 66.3,-10 66.3,-10 l 18.9,-180.7 19,-28.5 z"
   id="path6503"
   inkscape:connector-curvature="0"
   style="display:inline;fill:#d49011" />
	<path
   display="inline"
   d="M 270.7,87.8 276,37 c 0,0 -32.3,-10 -98.3,-10 -66,0 -94.4,10 -94.4,10 l 5.4,51.7 c -8,5.5 -10.8,15.2 -9.6,26.9 1.2,11.7 6.1,22.1 15.1,25.9 l 19.1,184.2 c 0,0 18.3,10 66.3,10 48,0 66.3,-10 66.3,-10 L 265,142.1 c 9.7,-3.3 15.4,-14.1 16.7,-26.5 1.3,-12.4 -2.1,-22.6 -11,-27.8 z"
   id="path6505"
   inkscape:connector-curvature="0"
   style="display:inline;fill:none;stroke:#d0d2d3;stroke-width:10.82839966;stroke-linejoin:round" />
	<path
   display="inline"
   d="m 108.3,56 c 1,22.8 2.9,36 2.9,36 0,0 -10.2,10 -8.6,22 2.1,15.2 14.1,20.6 14.1,20.6 l 18.4,171.7"
   id="path6507"
   inkscape:connector-curvature="0"
   style="display:inline;fill:none;stroke:#ffffff;stroke-width:10.82839966;stroke-linecap:round;stroke-linejoin:round" />
</g>
<g
   id="Bock"
   display="none"
   style="display:none"
   transform="translate(-89,-24.1)">
	<line
   display="inline"
   x1="179.8"
   y1="247.7"
   x2="179.8"
   y2="318.39999"
   id="line6510"
   style="display:inline;fill:none;stroke:#d0d2d3;stroke-width:25" />
	<path
   display="inline"
   d="m 247.4,323.6 c 0,7 -30.2,14.2 -67.5,14.2 -37.3,0 -67.5,-7.2 -67.5,-14.2 0,-7 67.5,-13.5 67.5,-26.9 0,13.4 67.5,19.9 67.5,26.9 z"
   id="path6512"
   inkscape:connector-curvature="0"
   style="display:inline;fill:#d0d2d3" />
	<polygon
   display="inline"
   points="113,53 244,53 239,89.5 120,89.5 "
   id="polygon6514"
   style="display:inline;fill:#ffffff" />
	<polygon
   display="inline"
   points="137.7,251.1 179.4,262.3 223.3,251.1 239.3,79.6 120.2,79.6 "
   id="polygon6516"
   style="display:inline;fill:#ad5c11" />
	<g
   display="inline"
   id="g6520"
   style="display:inline">
		<path
   d="m 177.8,47 c 31.1,0 52.2,4.3 62.4,7.1 l -23.4,195.4 c -5.1,2.3 -16.6,6.2 -37,6.2 -20.4,0 -31.9,-3.8 -37,-6.2 L 119.3,53.8 c 9.2,-2.7 28.2,-6.8 58.5,-6.8 m 0,-10 c -48.4,0 -69.3,10 -69.3,10 l 25,208.7 c 0,0 12.2,10 46.3,10 34.1,0 46.3,-10 46.3,-10 L 251.1,47 c 0,0 -24.9,-10 -73.3,-10 z"
   id="path6518"
   inkscape:connector-curvature="0"
   style="fill:#d0d2d3" />
	</g>
	
		<line
   display="inline"
   x1="136.2"
   y1="67"
   x2="155"
   y2="239.8"
   id="line6522"
   style="display:inline;fill:none;stroke:#ffffff;stroke-width:10;stroke-linecap:round" />
</g>
<g
   id="Brown_Ale"
   display="none"
   style="display:none"
   transform="translate(-89,-24.1)">
	<polygon
   display="inline"
   points="260.9,101 255.1,39 206.1,30 153.1,30 101.5,36.1 94.4,101.8 "
   id="polygon6525"
   style="display:inline;fill:#ffffff" />
	<path
   display="inline"
   d="M 260.6,74.6 H 93.9 l 2.4,85.7 18.4,118 5.3,42.8 c 0,0 13.6,9.6 59.8,9.6 46.2,0 59.8,-9.6 59.8,-9.6 l 2.5,-48 19.3,-121.6 z"
   id="path6527"
   inkscape:connector-curvature="0"
   style="display:inline;fill:#471e00" />
	<path
   display="inline"
   d="m 177.7,335.7 c 37,0 51.5,-6.7 60.3,-10 0,-70 23.4,-154.3 23.4,-203.3 0,-76.7 -8.4,-85.3 -8.4,-85.3 0,0 -9.3,-8 -75.3,-8 v 0 c -66,0 -75.3,8 -75.3,8 0,0 -8.4,8.7 -8.4,85.3 0,49 23.4,133.3 23.4,203.3 8.9,3.3 23.3,10 60.3,10 z"
   id="path6529"
   inkscape:connector-curvature="0"
   style="display:inline;fill:none;stroke:#d0d2d3;stroke-width:10" />
	<path
   display="inline"
   d="m 116,66 c -0.8,11.6 -1.3,36.5 -1.3,55.7 0,58.3 21.4,118.3 21.4,188.3"
   id="path6531"
   inkscape:connector-curvature="0"
   style="display:inline;fill:none;stroke:#ffffff;stroke-width:10;stroke-linecap:round" />
</g>
<g
   id="Cream_Ale"
   display="none"
   style="display:none"
   transform="translate(-89,-24.1)">
	<polygon
   display="inline"
   points="94,94.5 264,101 269.6,40.5 177,32.5 91,40.5 "
   id="polygon6534"
   style="display:inline;fill:#ffffff" />
	<path
   display="inline"
   d="M 267.6,71.6 H 94.4 v 42.8 l 21.5,206.7 c 0,0 17.6,9.6 63.8,9.6 46.2,0 63.8,-9.6 63.8,-9.6 l 24,-231.4 V 71.6 Z"
   id="path6536"
   inkscape:connector-curvature="0"
   style="display:inline;fill:#edc600" />
	<g
   display="inline"
   id="g6540"
   style="display:inline">
		<path
   d="m 177.7,37 c 45.3,0 74.5,4.8 87.5,7.6 l -28.5,274 c -7.8,2.6 -25.6,7 -57,7 -31.4,0 -49.3,-4.4 -57,-7 L 94.2,44.4 c 12,-2.7 39,-7.4 83.5,-7.4 m 0,-10 c -66,0 -94.3,10 -94.3,10 l 30,288.7 c 0,0 18.3,10 66.3,10 48,0 66.3,-10 66.3,-10 L 276,37 c 0,0 -32.3,-10 -98.3,-10 z"
   id="path6538"
   inkscape:connector-curvature="0"
   style="fill:#d0d2d3" />
	</g>
	
		<line
   display="inline"
   x1="111"
   y1="69.900002"
   x2="134.8"
   y2="305"
   id="line6542"
   style="display:inline;fill:none;stroke:#ffffff;stroke-width:10.82839966;stroke-linecap:round;stroke-linejoin:round" />
</g>
<g
   id="Dubbel"
   display="none"
   style="display:none"
   transform="translate(-89,-24.1)">
	<polygon
   display="inline"
   points="93,114.7 180,108.7 266.5,114.7 266.5,147.5 93,147.5 "
   id="polygon6545"
   style="display:inline;fill:#ffffff" />
	<path
   display="inline"
   d="m 269.7,160.2 c 0,-12.4 1.7,-7.1 -4.7,-20.2 H 93 c -6.1,13.1 -3.3,7.8 -3.3,20.2 0,48.3 33.7,87.5 90,87.5 56.3,0 90,-39.2 90,-87.5 z"
   id="path6547"
   inkscape:connector-curvature="0"
   style="display:inline;fill:#c76a00" />
	<path
   display="inline"
   d="m 264.7,114.5 c 0,0 4.9,14.7 4.9,45.7 0,48.3 -33.7,87.5 -90,87.5 -56.3,0 -90,-39.2 -90,-87.5 0,-30.2 3,-44.6 3,-44.6 0,0 22.2,-5.9 87,-5.9 64.8,0 85.1,4.8 85.1,4.8 z"
   id="path6549"
   inkscape:connector-curvature="0"
   style="display:inline;fill:none;stroke:#d0d2d3;stroke-width:10" />
	<line
   display="inline"
   x1="179.7"
   y1="247.7"
   x2="179.7"
   y2="318.39999"
   id="line6551"
   style="display:inline;fill:none;stroke:#d0d2d3;stroke-width:25" />
	<path
   display="inline"
   d="m 247.2,328.6 c 0,7 -30.2,9.2 -67.5,9.2 -37.3,0 -67.5,-2.2 -67.5,-9.2 0,-7 67.5,-8.5 67.5,-21.9 0.1,13.4 67.5,14.9 67.5,21.9 z"
   id="path6553"
   inkscape:connector-curvature="0"
   style="display:inline;fill:#d0d2d3" />
	<path
   display="inline"
   d="m 200.1,284 c 0,-5.7 -2.6,-10.7 -6.8,-14.2 -0.7,-0.7 -1.2,-1.7 -1.2,-2.8 H 189 c -2.8,-1.4 -6,-2.2 -9.4,-2.2 -3.4,0 -6.6,0.8 -9.4,2.2 h -3.1 c 0,1.1 -0.5,2.1 -1.2,2.8 -4.1,3.5 -6.8,8.5 -6.8,14.2 0,5.6 2.6,10.6 6.6,14.1 0.8,0.7 1.3,1.8 1.3,2.9 h 3.2 c 2.8,1.3 6,2.1 9.3,2.1 3.3,0 6.5,-0.8 9.3,-2.1 h 3.2 c 0,-1.1 0.5,-2.2 1.3,-2.9 4.2,-3.5 6.8,-8.5 6.8,-14.1 z"
   id="path6555"
   inkscape:connector-curvature="0"
   style="display:inline;fill:#d0d2d3" />
	<path
   display="inline"
   d="m 178.7,232.8 c -45.7,-1 -73,-33.3 -73,-73 0,-10.7 0.4,-19 1,-25.1"
   id="path6557"
   inkscape:connector-curvature="0"
   style="display:inline;fill:none;stroke:#ffffff;stroke-width:10;stroke-linecap:round" />
</g>
<g
   id="Dunkel"
   display="none"
   style="display:none"
   transform="translate(-89,-24.1)">
	<path
   display="inline"
   d="m 331,204.3 c 0,52 -13,73.7 -41,73.7 h -51.3 c -16.6,0 -30,-13.4 -30,-30 v -84 c 0,-16.6 13.4,-30 30,-30 H 290 c 28,0 41,18.3 41,70.3 z"
   id="path6560"
   inkscape:connector-curvature="0"
   style="display:inline;fill:none;stroke:#d0d2d3;stroke-width:20" />
	<path
   display="inline"
   d="M 279,94.5 H 90 L 94,43 c 0,0 25,-17 84.5,-17 59.5,0 96.5,17 96.5,17 z"
   id="path6562"
   inkscape:connector-curvature="0"
   style="display:inline;fill:#ffffff" />
	<path
   display="inline"
   d="m 279.5,70.1 h -190 v 37 L 93,314.6 c 0,0 42.8,21.7 86.8,21.7 44,0 96.8,-21.7 96.8,-21.7 l 0.9,-186.3 z"
   id="path6564"
   inkscape:connector-curvature="0"
   style="display:inline;fill:#471e00" />
	<g
   display="inline"
   id="g6568"
   style="display:inline">
		<path
   d="m 178.7,32 c 59.4,0 83.7,9.4 91.5,13.5 l 1.8,53.7 v 214.6 c -7.2,4.4 -31,14.9 -92.3,14.9 -60.3,0 -78.1,-10.1 -82.3,-13.5 V 99.2 L 99.3,43.9 C 103.5,40.8 121.1,32 178.7,32 m 0,-10 C 95.4,22 89.4,40 89.4,40 l -2,59 v 219.7 c 0,0 6.7,20 92.3,20 85.6,0 102.3,-20 102.3,-20 V 99 l -2,-59 c 0,0 -18,-18 -101.3,-18 z"
   id="path6566"
   inkscape:connector-curvature="0"
   style="fill:#d0d2d3" />
	</g>
	<path
   display="inline"
   d="M 281.8,119.6 H 281 v 28.8 h 0.8 c 0,-2.4 2,-4.4 4.4,-4.4 v -19.9 c -2.4,0 -4.4,-2 -4.4,-4.5 z"
   id="path6570"
   inkscape:connector-curvature="0"
   style="display:inline;fill:#d0d2d3" />
	<path
   display="inline"
   d="M 281.8,263.6 H 281 v 28.8 h 0.8 c 0,-2.4 2,-4.4 4.4,-4.4 v -19.9 c -2.4,0 -4.4,-2 -4.4,-4.5 z"
   id="path6572"
   inkscape:connector-curvature="0"
   style="display:inline;fill:#d0d2d3" />
	<path
   display="inline"
   d="m 112,61 c 0,0 -1,16.6 -1,38 0,21.4 -1,195 -1,195"
   id="path6574"
   inkscape:connector-curvature="0"
   style="display:inline;fill:none;stroke:#fbfeff;stroke-width:10;stroke-linecap:round" />
</g>
<g
   id="Flanders_Red"
   display="none"
   style="display:none"
   transform="translate(-89,-24.1)">
	<g
   display="inline"
   id="g6589"
   style="display:inline">
		<polygon
   points="120.9,95.4 123.6,24.5 179.7,19.7 233.7,24.5 238.7,98.5 244.6,127.7 173.5,134 115,117.5 "
   id="polygon6577"
   style="fill:#ffffff" />
		<path
   d="m 99.7,160.2 c 0,48.3 31.3,97.5 80,97.5 48.7,0 80,-49.2 80,-97.5 0,-19.6 -11.5,-76.5 -18,-102.6 H 116 C 110.2,83.9 99.7,141 99.7,160.2 Z"
   id="path6579"
   inkscape:connector-curvature="0"
   style="fill:#ab3300" />
		<path
   d="m 233.7,24.5 c 0,0 25.9,104.7 25.9,135.7 0,48.3 -31.3,97.5 -80,97.5 -48.7,0 -80,-49.2 -80,-97.5 0,-30.2 24,-135.7 24,-135.7 0,0 18.5,-4.8 56,-4.8 37.5,0 54.1,4.8 54.1,4.8 z"
   id="path6581"
   inkscape:connector-curvature="0"
   style="fill:none;stroke:#d0d2d3;stroke-width:10" />
		<path
   d="M 145.2,222.4 C 129,207 118.5,190.8 118.5,160.9 c 0,-29.9 20.6,-126 20.6,-126"
   id="path6583"
   inkscape:connector-curvature="0"
   style="fill:none;stroke:#ffffff;stroke-width:10;stroke-linecap:round" />
		<line
   x1="179.7"
   y1="257.70001"
   x2="179.7"
   y2="316"
   id="line6585"
   style="fill:none;stroke:#d0d2d3;stroke-width:15" />
		<path
   d="m 244.6,324.7 c 0,6 -29,10.9 -64.8,10.9 -35.8,0 -64.8,-4.9 -64.8,-10.9 0,-6 64.8,-11.3 64.8,-22.9 0,11.6 64.8,16.9 64.8,22.9 z"
   id="path6587"
   inkscape:connector-curvature="0"
   style="fill:#d0d2d3" />
	</g>
</g>
<g
   id="Golden_Ale"
   display="none"
   style="display:none"
   transform="translate(-89,-24.1)">
	<polygon
   display="inline"
   points="94,94.5 264,101 269.6,39.5 177,31.5 91,39.5 "
   id="polygon6592"
   style="display:inline;fill:#ffffff" />
	<path
   display="inline"
   d="M 267.6,82.6 H 94.4 v 31.8 l 21.5,206.7 c 0,0 17.6,9.6 63.8,9.6 46.2,0 63.8,-9.6 63.8,-9.6 l 24,-231.4 v -7.1 z"
   id="path6594"
   inkscape:connector-curvature="0"
   style="display:inline;fill:#f7e300" />
	<g
   display="inline"
   id="g6598"
   style="display:inline">
		<path
   d="m 177.7,37 c 45.3,0 74.5,4.8 87.5,7.6 l -28.5,274 c -7.8,2.6 -25.6,7 -57,7 -31.4,0 -49.3,-4.4 -57,-7 L 94.2,44.4 c 12,-2.7 39,-7.4 83.5,-7.4 m 0,-10 c -66,0 -94.3,10 -94.3,10 l 30,288.7 c 0,0 18.3,10 66.3,10 48,0 66.3,-10 66.3,-10 L 276,37 c 0,0 -32.3,-10 -98.3,-10 z"
   id="path6596"
   inkscape:connector-curvature="0"
   style="fill:#d0d2d3" />
	</g>
	
		<line
   display="inline"
   x1="111"
   y1="69.900002"
   x2="134.8"
   y2="305"
   id="line6600"
   style="display:inline;fill:none;stroke:#ffffff;stroke-width:10.82839966;stroke-linecap:round;stroke-linejoin:round" />
</g>
<g
   id="Golden_Strong"
   display="none"
   style="display:none"
   transform="translate(-89,-24.1)">
	<polygon
   display="inline"
   points="120.9,65.4 118.6,44.5 179.7,39.7 238.7,44.5 238.7,68.5 244.6,97.7 173.5,104 115,87.5 "
   id="polygon6603"
   style="display:inline;fill:#ffffff" />
	<path
   display="inline"
   d="m 99.7,160.2 c 0,48.3 31.3,77.5 80,77.5 48.7,0 80,-29.2 80,-77.5 0,-19.6 -11.5,-46.5 -18,-72.6 H 116 c -5.8,26.3 -16.3,53.4 -16.3,72.6 z"
   id="path6605"
   inkscape:connector-curvature="0"
   style="display:inline;fill:#fce700" />
	<path
   display="inline"
   d="m 238.7,44.5 c -7.8,35.8 20.9,84.7 20.9,115.7 0,48.3 -31.3,77.5 -80,77.5 -48.7,0 -80,-29.2 -80,-77.5 0,-30.2 26,-79.9 19,-115.7 15.2,-1.9 23.5,-4.8 61,-4.8 37.5,0 45.9,2.3 59.1,4.8 z"
   id="path6607"
   inkscape:connector-curvature="0"
   style="display:inline;fill:none;stroke:#d0d2d3;stroke-width:10" />
	<path
   display="inline"
   d="m 145.2,210.4 c -15.7,-11.5 -25.7,-25.3 -25.7,-49.5 0,-26.4 23.7,-74.7 17.6,-106"
   id="path6609"
   inkscape:connector-curvature="0"
   style="display:inline;fill:none;stroke:#ffffff;stroke-width:10;stroke-linecap:round" />
	<line
   display="inline"
   x1="179.7"
   y1="237.7"
   x2="179.7"
   y2="316"
   id="line6611"
   style="display:inline;fill:none;stroke:#d0d2d3;stroke-width:15" />
	<path
   display="inline"
   d="m 244.6,324.7 c 0,6 -29,10.9 -64.8,10.9 -35.8,0 -64.8,-4.9 -64.8,-10.9 0,-6 64.8,-11.3 64.8,-22.9 0,11.6 64.8,16.9 64.8,22.9 z"
   id="path6613"
   inkscape:connector-curvature="0"
   style="display:inline;fill:#d0d2d3" />
</g>
<g
   id="Gose"
   display="none"
   style="display:none"
   transform="translate(-89,-24.1)">
	<rect
   x="128"
   y="90"
   display="inline"
   width="103"
   height="51.5"
   id="rect6616"
   style="display:inline;fill:#ffffff" />
	<path
   display="inline"
   d="m 234.5,122.1 h -107 v 32 l 1.4,167.5 c 0,0 6.8,9.7 50.8,9.7 44,0 50.8,-9.7 50.8,-9.7 l 3.9,-192.3 v -7.2 z"
   id="path6618"
   inkscape:connector-curvature="0"
   style="display:inline;fill:#edd65c" />
	<g
   display="inline"
   id="g6622"
   style="display:inline">
		<path
   d="m 177.7,79 c 25,0 40.6,3.1 48.3,5.2 v 234.2 c -7.7,2.1 -23.1,5.2 -46.3,5.2 -23.2,0 -38.6,-3.1 -46.3,-5.2 V 83.8 c 6.5,-2 20.2,-4.8 44.3,-4.8 m 0,-10 c -41.2,0 -54.3,8 -54.3,8 v 248.7 c 0,0 18.2,8 56.3,8 38.1,0 56.3,-8 56.3,-8 V 77 c 0,0 -17.2,-8 -58.3,-8 z"
   id="path6620"
   inkscape:connector-curvature="0"
   style="fill:#d0d2d3" />
	</g>
	
		<line
   display="inline"
   x1="148"
   y1="108"
   x2="148"
   y2="301"
   id="line6624"
   style="display:inline;fill:none;stroke:#fbfeff;stroke-width:10;stroke-linecap:round" />
</g>
<g
   id="Gruit"
   display="none"
   style="display:none"
   transform="translate(-89,-24.1)">
	<polygon
   display="inline"
   points="264,101 269.6,51.5 91,51.5 94,94.5 "
   id="polygon6627"
   style="display:inline;fill:#ffffff" />
	<path
   display="inline"
   d="M 267.6,82.6 H 94.4 v 31.8 l 21.5,206.7 c 0,0 17.6,9.6 63.8,9.6 46.2,0 63.8,-9.6 63.8,-9.6 l 24,-231.4 v -7.1 z"
   id="path6629"
   inkscape:connector-curvature="0"
   style="display:inline;fill:#d6a400" />
	<g
   display="inline"
   id="g6633"
   style="display:inline">
		<path
   d="m 177.7,37 c 45.3,0 74.5,4.8 87.5,7.6 l -28.5,274 c -7.8,2.6 -25.6,7 -57,7 -31.4,0 -49.3,-4.4 -57,-7 L 94.2,44.4 c 12,-2.7 39,-7.4 83.5,-7.4 m 0,-10 c -66,0 -94.3,10 -94.3,10 l 30,288.7 c 0,0 18.3,10 66.3,10 48,0 66.3,-10 66.3,-10 L 276,37 c 0,0 -32.3,-10 -98.3,-10 z"
   id="path6631"
   inkscape:connector-curvature="0"
   style="fill:#d0d2d3" />
	</g>
	
		<line
   display="inline"
   x1="111"
   y1="69.900002"
   x2="134.8"
   y2="305"
   id="line6635"
   style="display:inline;fill:none;stroke:#ffffff;stroke-width:10.82839966;stroke-linecap:round;stroke-linejoin:round" />
</g>
<g
   id="Gueuze"
   display="none"
   style="display:none"
   transform="translate(-89,-24.1)">
	<polygon
   display="inline"
   points="106,60 253,60 233,111.5 126,111.5 "
   id="polygon6638"
   style="display:inline;fill:#ffffff" />
	<path
   display="inline"
   d="m 249.5,92.1 h -141 l 4,32 14.5,197.5 c 0,0 8.8,9.7 52.8,9.7 44,0 50.8,-9.7 50.8,-9.7 L 249.5,99.3 Z"
   id="path6640"
   inkscape:connector-curvature="0"
   style="display:inline;fill:#edd65c" />
	
		<line
   display="inline"
   x1="128"
   y1="78"
   x2="144"
   y2="301"
   id="line6642"
   style="display:inline;fill:none;stroke:#fbfeff;stroke-width:10;stroke-linecap:round" />
	<g
   display="inline"
   id="g6654"
   style="display:inline">
		<line
   x1="227.8"
   y1="228.8"
   x2="220.2"
   y2="326.20001"
   id="line6644"
   style="fill:none;stroke:#ffffff;stroke-width:7;stroke-linecap:round" />
		<line
   x1="205.7"
   y1="228.8"
   x2="201.89999"
   y2="326.20001"
   id="line6646"
   style="fill:none;stroke:#ffffff;stroke-width:7;stroke-linecap:round" />
		<line
   x1="183.7"
   y1="228.8"
   x2="183.7"
   y2="326.20001"
   id="line6648"
   style="fill:none;stroke:#ffffff;stroke-width:7;stroke-linecap:round" />
		<line
   x1="161.60001"
   y1="228.8"
   x2="165.39999"
   y2="326.20001"
   id="line6650"
   style="fill:none;stroke:#ffffff;stroke-width:7;stroke-linecap:round" />
		<line
   x1="139.60001"
   y1="228.8"
   x2="147.2"
   y2="326.20001"
   id="line6652"
   style="fill:none;stroke:#ffffff;stroke-width:7;stroke-linecap:round" />
	</g>
	<g
   display="inline"
   id="g6658"
   style="display:inline">
		<path
   d="m 177.7,49 c 28.4,0 56.1,4 69.7,6.2 l -18.9,262.9 c -8.1,2.2 -24.5,5.5 -48.8,5.5 -24.1,0 -40.7,-3.4 -48.8,-5.5 L 112,55.1 C 124.5,52.8 149.8,49 177.7,49 m 0,-10 c -41.2,0 -76.3,8 -76.3,8 l 20,278.7 c 0,0 20.2,8 58.3,8 38.1,0 58.3,-8 58.3,-8 L 258,47 c 0,0 -39.2,-8 -80.3,-8 z"
   id="path6656"
   inkscape:connector-curvature="0"
   style="fill:#d0d2d3" />
	</g>
	<g
   display="inline"
   id="g6670"
   style="display:inline">
		<line
   x1="223.8"
   y1="228.8"
   x2="216.2"
   y2="326.20001"
   id="line6660"
   style="fill:none;stroke:#d0d2d3;stroke-width:7;stroke-linecap:round" />
		<line
   x1="201.7"
   y1="228.8"
   x2="197.89999"
   y2="326.20001"
   id="line6662"
   style="fill:none;stroke:#d0d2d3;stroke-width:7;stroke-linecap:round" />
		<line
   x1="179.7"
   y1="228.8"
   x2="179.7"
   y2="326.20001"
   id="line6664"
   style="fill:none;stroke:#d0d2d3;stroke-width:7;stroke-linecap:round" />
		<line
   x1="157.60001"
   y1="228.8"
   x2="161.39999"
   y2="326.20001"
   id="line6666"
   style="fill:none;stroke:#d0d2d3;stroke-width:7;stroke-linecap:round" />
		<line
   x1="135.60001"
   y1="228.8"
   x2="143.2"
   y2="326.20001"
   id="line6668"
   style="fill:none;stroke:#d0d2d3;stroke-width:7;stroke-linecap:round" />
	</g>
</g>
<g
   id="Imperial"
   display="none"
   style="display:none"
   transform="translate(-89,-24.1)">
	<g
   display="inline"
   id="g6677"
   style="display:inline">
		<path
   d="M 118.3,159.9 266,163 247.6,121 H 138 c -4.1,6.5 -14,23.1 -19.7,38.9 z"
   id="path6673"
   inkscape:connector-curvature="0"
   style="fill:#c9b28d" />
		<path
   d="m 126.2,121 h -15.7 l -14,38.5 11.3,0.2 c 4.8,-14.6 13,-29.6 18.4,-38.7 z"
   id="path6675"
   inkscape:connector-curvature="0"
   style="fill:#c9b28d" />
	</g>
	<path
   display="inline"
   d="M 257.3,140 H 127.1 c -6.5,12.6 -13,28.1 -13,39.5 0,26.9 13.7,49 36.6,59.2 2.5,1.1 3.7,4.1 2.5,6.6 -0.8,1.9 -2.7,3 -4.6,3 -0.7,0 -1.4,-0.1 -2,-0.4 -26.6,-11.8 -42.5,-37.3 -42.5,-68.3 0,-11.8 5.7,-26.7 11.9,-39.5 h -14.2 c -6.5,13.1 -12,27.8 -12,40.2 0,48.3 33.7,87.5 90,87.5 56.3,0 90,-39.2 90,-87.5 -0.1,-12.6 -5.8,-27.2 -12.5,-40.3 z"
   id="path6679"
   inkscape:connector-curvature="0"
   style="display:inline;fill:#261600" />
	<path
   display="inline"
   d="m 236.7,104.5 c 0,0 32.9,44.7 32.9,75.7 0,48.3 -33.7,87.5 -90,87.5 -56.3,0 -90,-39.2 -90,-87.5 0,-30.2 31,-74.6 31,-74.6 0,0 21.5,-3.9 59,-3.9 37.5,0 57.1,2.8 57.1,2.8 z"
   id="path6681"
   inkscape:connector-curvature="0"
   style="display:inline;fill:none;stroke:#d0d2d3;stroke-width:10" />
	<line
   display="inline"
   x1="179.7"
   y1="267.70001"
   x2="179.7"
   y2="318.39999"
   id="line6683"
   style="display:inline;fill:none;stroke:#d0d2d3;stroke-width:15" />
	<path
   display="inline"
   d="m 244.6,327.7 c 0,6 -29,7.9 -64.8,7.9 -35.8,0 -64.8,-1.9 -64.8,-7.9 0,-6 64.8,-7.3 64.8,-18.9 0,11.6 64.8,12.9 64.8,18.9 z"
   id="path6685"
   inkscape:connector-curvature="0"
   style="display:inline;fill:#d0d2d3" />
</g>
<g
   id="Kolsch"
   display="none"
   style="display:none"
   transform="translate(-89,-24.1)">
	<rect
   x="128"
   y="90"
   display="inline"
   width="103"
   height="51.5"
   id="rect6688"
   style="display:inline;fill:#ffffff" />
	<path
   display="inline"
   d="m 234.5,122.1 h -107 v 32 l 1.4,167.5 c 0,0 6.8,9.7 50.8,9.7 44,0 50.8,-9.7 50.8,-9.7 l 3.9,-192.3 v -7.2 z"
   id="path6690"
   inkscape:connector-curvature="0"
   style="display:inline;fill:#edc600" />
	<g
   display="inline"
   id="g6694"
   style="display:inline">
		<path
   d="m 177.7,79 c 25,0 40.6,3.1 48.3,5.2 v 234.2 c -7.7,2.1 -23.1,5.2 -46.3,5.2 -23.2,0 -38.6,-3.1 -46.3,-5.2 V 83.8 c 6.5,-2 20.2,-4.8 44.3,-4.8 m 0,-10 c -41.2,0 -54.3,8 -54.3,8 v 248.7 c 0,0 18.2,8 56.3,8 38.1,0 56.3,-8 56.3,-8 V 77 c 0,0 -17.2,-8 -58.3,-8 z"
   id="path6692"
   inkscape:connector-curvature="0"
   style="fill:#d0d2d3" />
	</g>
	
		<line
   display="inline"
   x1="148"
   y1="108"
   x2="148"
   y2="301"
   id="line6696"
   style="display:inline;fill:none;stroke:#fbfeff;stroke-width:10;stroke-linecap:round" />
</g>
<g
   id="IPA"
   display="none"
   style="display:none"
   transform="translate(-89,-24.1)">
	<polygon
   display="inline"
   points="108.4,32.5 178.9,24.5 251.6,32.5 255.6,104.5 102.4,104.5 "
   id="polygon6699"
   style="display:inline;fill:#ffffff" />
	<path
   display="inline"
   d="m 252.8,80.4 h -151 v 39.7 l 8.8,208.2 c 0,0 14.7,12 69.4,12 54.7,0 68.1,-12 68.1,-12 l 6.8,-209 z"
   id="path6701"
   inkscape:connector-curvature="0"
   style="display:inline;fill:#f7a000" />
	<g
   display="inline"
   id="g6705"
   style="display:inline">
		<path
   d="m 177.3,29.4 c 35.3,0 58.4,4.9 68.3,7.6 1.7,14.1 5.3,49.4 5.3,84.4 0,39.8 -4.8,172.1 -5.9,204.5 -10.4,2.7 -33.1,7.5 -65.2,7.5 -32.3,0 -55.8,-4.8 -66.5,-7.6 -1.2,-32.5 -5.9,-165.1 -5.9,-204.4 0,-34.7 3.7,-70.6 5.4,-84.6 8.9,-2.7 29.9,-7.4 64.5,-7.4 m 0,-10 c -51.1,0 -73.7,9.9 -73.7,9.9 0,0 -6.2,46.7 -6.2,92 0,45.4 6.2,212 6.2,212 0,0 28.8,9.9 76.2,9.9 47.4,0 75,-9.9 75,-9.9 0,0 6.2,-166.1 6.2,-212 0,-45.9 -6.2,-92 -6.2,-92 0,0 -26.4,-9.9 -77.5,-9.9 z"
   id="path6703"
   inkscape:connector-curvature="0"
   style="fill:#d0d2d3" />
	</g>
	<path
   display="inline"
   d="m 122.7,64.9 c 0,0 -1,20.3 -1,48.5 0,28.2 1,43.2 4.7,191.4"
   id="path6707"
   inkscape:connector-curvature="0"
   style="display:inline;fill:none;stroke:#fbfeff;stroke-width:10;stroke-linecap:round" />
</g>
<g
   id="Lambic"
   display="none"
   style="display:none"
   transform="translate(-89,-24.1)">
	<polygon
   display="inline"
   points="106,60 253,60 233,111.5 126,111.5 "
   id="polygon6710"
   style="display:inline;fill:#ffffff" />
	<path
   display="inline"
   d="m 249.5,92.1 h -141 l 4,32 14.5,197.5 c 0,0 8.8,9.7 52.8,9.7 44,0 50.8,-9.7 50.8,-9.7 L 249.5,99.3 Z"
   id="path6712"
   inkscape:connector-curvature="0"
   style="display:inline;fill:#edb35c" />
	
		<line
   display="inline"
   x1="128"
   y1="78"
   x2="144"
   y2="301"
   id="line6714"
   style="display:inline;fill:none;stroke:#fbfeff;stroke-width:10;stroke-linecap:round" />
	<g
   display="inline"
   id="g6726"
   style="display:inline">
		<line
   x1="227.8"
   y1="228.8"
   x2="220.2"
   y2="326.20001"
   id="line6716"
   style="fill:none;stroke:#ffffff;stroke-width:7;stroke-linecap:round" />
		<line
   x1="205.7"
   y1="228.8"
   x2="201.89999"
   y2="326.20001"
   id="line6718"
   style="fill:none;stroke:#ffffff;stroke-width:7;stroke-linecap:round" />
		<line
   x1="183.7"
   y1="228.8"
   x2="183.7"
   y2="326.20001"
   id="line6720"
   style="fill:none;stroke:#ffffff;stroke-width:7;stroke-linecap:round" />
		<line
   x1="161.60001"
   y1="228.8"
   x2="165.39999"
   y2="326.20001"
   id="line6722"
   style="fill:none;stroke:#ffffff;stroke-width:7;stroke-linecap:round" />
		<line
   x1="139.60001"
   y1="228.8"
   x2="147.2"
   y2="326.20001"
   id="line6724"
   style="fill:none;stroke:#ffffff;stroke-width:7;stroke-linecap:round" />
	</g>
	<g
   display="inline"
   id="g6730"
   style="display:inline">
		<path
   d="m 177.7,49 c 28.4,0 56.1,4 69.7,6.2 l -18.9,262.9 c -8.1,2.2 -24.5,5.5 -48.8,5.5 -24.1,0 -40.7,-3.4 -48.8,-5.5 L 112,55.1 C 124.5,52.8 149.8,49 177.7,49 m 0,-10 c -41.2,0 -76.3,8 -76.3,8 l 20,278.7 c 0,0 20.2,8 58.3,8 38.1,0 58.3,-8 58.3,-8 L 258,47 c 0,0 -39.2,-8 -80.3,-8 z"
   id="path6728"
   inkscape:connector-curvature="0"
   style="fill:#d0d2d3" />
	</g>
	<g
   display="inline"
   id="g6742"
   style="display:inline">
		<line
   x1="223.8"
   y1="228.8"
   x2="216.2"
   y2="326.20001"
   id="line6732"
   style="fill:none;stroke:#d0d2d3;stroke-width:7;stroke-linecap:round" />
		<line
   x1="201.7"
   y1="228.8"
   x2="197.89999"
   y2="326.20001"
   id="line6734"
   style="fill:none;stroke:#d0d2d3;stroke-width:7;stroke-linecap:round" />
		<line
   x1="179.7"
   y1="228.8"
   x2="179.7"
   y2="326.20001"
   id="line6736"
   style="fill:none;stroke:#d0d2d3;stroke-width:7;stroke-linecap:round" />
		<line
   x1="157.60001"
   y1="228.8"
   x2="161.39999"
   y2="326.20001"
   id="line6738"
   style="fill:none;stroke:#d0d2d3;stroke-width:7;stroke-linecap:round" />
		<line
   x1="135.60001"
   y1="228.8"
   x2="143.2"
   y2="326.20001"
   id="line6740"
   style="fill:none;stroke:#d0d2d3;stroke-width:7;stroke-linecap:round" />
	</g>
</g>
<g
   id="Mild"
   display="none"
   style="display:none"
   transform="translate(-89,-24.1)">
	<polygon
   display="inline"
   points="268.8,96 272.5,38 216.4,28.5 150.9,28.5 87,35.5 92.2,89.5 "
   id="polygon6745"
   style="display:inline;fill:#fffbf2" />
	<path
   display="inline"
   d="M 271,77.7 H 91 l -13.9,38.9 c 0,0 17.9,33 17.9,33 l 18.3,176.1 c 0,0 18.3,10 66.3,10 48,0 66.3,-10 66.3,-10 l 18.9,-180.7 19,-28.5 z"
   id="path6747"
   inkscape:connector-curvature="0"
   style="display:inline;fill:#7d350f" />
	<path
   display="inline"
   d="M 270.7,87.8 276,37 c 0,0 -32.3,-10 -98.3,-10 -66,0 -94.4,10 -94.4,10 l 5.4,51.7 c -8,5.5 -10.8,15.2 -9.6,26.9 1.2,11.7 6.1,22.1 15.1,25.9 l 19.1,184.2 c 0,0 18.3,10 66.3,10 48,0 66.3,-10 66.3,-10 L 265,142.1 c 9.7,-3.3 15.4,-14.1 16.7,-26.5 1.3,-12.4 -2.1,-22.6 -11,-27.8 z"
   id="path6749"
   inkscape:connector-curvature="0"
   style="display:inline;fill:none;stroke:#d0d2d3;stroke-width:10.82839966;stroke-linejoin:round" />
	<path
   display="inline"
   d="m 108.3,56 c 1,22.8 2.9,36 2.9,36 0,0 -10.2,10 -8.6,22 2.1,15.2 14.1,20.6 14.1,20.6 l 18.4,171.7"
   id="path6751"
   inkscape:connector-curvature="0"
   style="display:inline;fill:none;stroke:#ffffff;stroke-width:10.82839966;stroke-linecap:round;stroke-linejoin:round" />
</g>
<g
   id="Oud_Bruin"
   display="none"
   style="display:none"
   transform="translate(-89,-24.1)">
	<g
   display="inline"
   id="g6766"
   style="display:inline">
		<polygon
   points="179.7,19.7 243.7,24.5 251.1,67 109.5,71.8 113.6,24.5 "
   id="polygon6754"
   style="fill:#ffffff" />
		<path
   d="m 102.7,100.2 c 0,46.3 3.6,152 69.3,157.2 2.5,0.2 12.6,0.2 14.9,0 66.1,-5 69.7,-110.8 69.7,-157.2 0,-19.6 1.5,-16.5 -5,-42.6 H 106 c -5.8,26.3 -3.3,23.4 -3.3,42.6 z"
   id="path6756"
   inkscape:connector-curvature="0"
   style="fill:#822e00" />
		<path
   d="m 243.7,24.5 c 0,0 12.9,44.7 12.9,75.7 0,46.8 -23,157.2 -59.7,157.2 -2.4,0 -32.5,0 -34.9,0 -37.2,0 -59.3,-110.5 -59.3,-157.2 0,-30.2 11,-75.7 11,-75.7 0,0 28.5,-4.8 66,-4.8 37.5,0 64,4.8 64,4.8 z"
   id="path6758"
   inkscape:connector-curvature="0"
   style="fill:none;stroke:#d0d2d3;stroke-width:10" />
		<path
   d="M 147.2,222.4 C 131.1,177.8 121.5,146 121.5,100.9 c 0,-29.9 7.6,-66 7.6,-66"
   id="path6760"
   inkscape:connector-curvature="0"
   style="fill:none;stroke:#ffffff;stroke-width:10;stroke-linecap:round" />
		<line
   x1="179.7"
   y1="257.70001"
   x2="179.7"
   y2="316"
   id="line6762"
   style="fill:none;stroke:#d0d2d3;stroke-width:15" />
		<path
   d="m 244.6,324.7 c 0,6 -29,10.9 -64.8,10.9 -35.8,0 -64.8,-4.9 -64.8,-10.9 0,-6 64.8,-11.3 64.8,-22.9 0,11.6 64.8,16.9 64.8,22.9 z"
   id="path6764"
   inkscape:connector-curvature="0"
   style="fill:#d0d2d3" />
	</g>
</g>
<g
   id="Pale_Ale"
   display="none"
   style="display:none"
   transform="translate(-89,-24.1)">
	<polygon
   display="inline"
   points="94,94.5 264,101 269.6,40.3 179.7,31.7 91,40.3 "
   id="polygon6769"
   style="display:inline;fill:#ffffff" />
	<path
   display="inline"
   d="M 267.6,82.6 H 94.4 v 31.8 l 21.5,206.7 c 0,0 17.6,9.6 63.8,9.6 46.2,0 63.8,-9.6 63.8,-9.6 l 24,-231.4 v -7.1 z"
   id="path6771"
   inkscape:connector-curvature="0"
   style="display:inline;fill:#d68b00" />
	<g
   display="inline"
   id="g6775"
   style="display:inline">
		<path
   d="m 177.7,37 c 45.3,0 74.5,4.8 87.5,7.6 l -28.5,274 c -7.8,2.6 -25.6,7 -57,7 -31.4,0 -49.3,-4.4 -57,-7 L 94.2,44.4 c 12,-2.7 39,-7.4 83.5,-7.4 m 0,-10 c -66,0 -94.3,10 -94.3,10 l 30,288.7 c 0,0 18.3,10 66.3,10 48,0 66.3,-10 66.3,-10 L 276,37 c 0,0 -32.3,-10 -98.3,-10 z"
   id="path6773"
   inkscape:connector-curvature="0"
   style="fill:#d0d2d3" />
	</g>
	
		<line
   display="inline"
   x1="111"
   y1="69.900002"
   x2="134.8"
   y2="305"
   id="line6777"
   style="display:inline;fill:none;stroke:#ffffff;stroke-width:10.82839966;stroke-linecap:round;stroke-linejoin:round" />
</g>
<g
   id="Patersbier"
   display="none"
   style="display:none"
   transform="translate(-89,-24.1)">
	<polygon
   display="inline"
   points="120.9,65.4 118.6,44.5 179.7,39.7 238.7,44.5 238.7,68.5 244.6,97.7 173.5,104 115,87.5 "
   id="polygon6780"
   style="display:inline;fill:#ffffff" />
	<path
   display="inline"
   d="m 99.7,160.2 c 0,48.3 31.3,77.5 80,77.5 48.7,0 80,-29.2 80,-77.5 0,-19.6 -11.5,-46.5 -18,-72.6 H 116 c -5.8,26.3 -16.3,53.4 -16.3,72.6 z"
   id="path6782"
   inkscape:connector-curvature="0"
   style="display:inline;fill:#fcc100" />
	<path
   display="inline"
   d="m 238.7,44.5 c -7.8,35.8 20.9,84.7 20.9,115.7 0,48.3 -31.3,77.5 -80,77.5 -48.7,0 -80,-29.2 -80,-77.5 0,-30.2 26,-79.9 19,-115.7 15.2,-1.9 23.5,-4.8 61,-4.8 37.5,0 45.9,2.3 59.1,4.8 z"
   id="path6784"
   inkscape:connector-curvature="0"
   style="display:inline;fill:none;stroke:#d0d2d3;stroke-width:10" />
	<path
   display="inline"
   d="m 145.2,210.4 c -15.7,-11.5 -25.7,-25.3 -25.7,-49.5 0,-26.4 23.7,-74.7 17.6,-106"
   id="path6786"
   inkscape:connector-curvature="0"
   style="display:inline;fill:none;stroke:#ffffff;stroke-width:10;stroke-linecap:round" />
	<line
   display="inline"
   x1="179.7"
   y1="237.7"
   x2="179.7"
   y2="316"
   id="line6788"
   style="display:inline;fill:none;stroke:#d0d2d3;stroke-width:15" />
	<path
   display="inline"
   d="m 244.6,324.7 c 0,6 -29,10.9 -64.8,10.9 -35.8,0 -64.8,-4.9 -64.8,-10.9 0,-6 64.8,-11.3 64.8,-22.9 0,11.6 64.8,16.9 64.8,22.9 z"
   id="path6790"
   inkscape:connector-curvature="0"
   style="display:inline;fill:#d0d2d3" />
</g>
<g
   id="Pilsner"
   display="none"
   style="display:none"
   transform="translate(-89,-24.1)">
	<polygon
   display="inline"
   points="113,43 244,43 239,79.5 120,79.5 "
   id="polygon6793"
   style="display:inline;fill:#ffffff" />
	<polygon
   display="inline"
   points="157.7,321.1 179.4,332.3 203.3,321.1 239.3,69.6 120.2,69.6 "
   id="polygon6795"
   style="display:inline;fill:#ffdd30" />
	<g
   display="inline"
   id="g6799"
   style="display:inline">
		<path
   d="m 177.8,37 c 30.8,0 51.8,4.2 62.1,7 l -43.2,276.9 c -2.3,1.8 -7.5,4.7 -17,4.7 -9.5,0 -14.7,-3 -17,-4.7 L 119.6,43.7 C 128.9,41 147.8,37 177.8,37 m 0,-10 c -48.4,0 -69.3,10 -69.3,10 l 45,288.7 c 0,0 7.2,10 26.3,10 19.2,0 26.3,-10 26.3,-10 L 251.1,37 c 0,0 -24.9,-10 -73.3,-10 z"
   id="path6797"
   inkscape:connector-curvature="0"
   style="fill:#d0d2d3" />
	</g>
	<ellipse
   display="inline"
   cx="179.8"
   cy="333.70001"
   rx="59.700001"
   ry="13.3"
   id="ellipse6801"
   style="display:inline;fill:#d0d2d3" />
	<path
   display="inline"
   d="m 201.1,325.7 6.6,-37.8 h -5 c 0,11.5 -10.7,20.8 -23.2,20.8 -12.5,0 -22.7,-9.3 -22.7,-20.8 h -4.9 l 6.6,37.8 c 0,0 2.2,5 21.3,5 19.1,0 21.3,-5 21.3,-5 z"
   id="path6803"
   inkscape:connector-curvature="0"
   style="display:inline;fill:#d0d2d3" />
	
		<line
   display="inline"
   x1="136.2"
   y1="57"
   x2="168.8"
   y2="287.79999"
   id="line6805"
   style="display:inline;fill:none;stroke:#ffffff;stroke-width:10;stroke-linecap:round" />
</g>
<g
   id="Porter"
   display="none"
   style="display:none"
   transform="translate(-89,-24.1)">
	<polygon
   display="inline"
   points="260.9,101 255.1,39 206.1,30 153.1,30 101.5,36.1 94.4,101.8 "
   id="polygon6808"
   style="display:inline;fill:#ffffff" />
	<path
   display="inline"
   d="M 260.6,74.6 H 93.9 l 2.4,85.7 18.4,118 5.3,42.8 c 0,0 13.6,9.6 59.8,9.6 46.2,0 59.8,-9.6 59.8,-9.6 l 2.5,-48 19.3,-121.6 z"
   id="path6810"
   inkscape:connector-curvature="0"
   style="display:inline;fill:#240f00" />
	<path
   display="inline"
   d="m 177.7,335.7 c 37,0 51.5,-6.7 60.3,-10 0,-70 23.4,-154.3 23.4,-203.3 0,-76.7 -8.4,-85.3 -8.4,-85.3 0,0 -9.3,-8 -75.3,-8 v 0 c -66,0 -75.3,8 -75.3,8 0,0 -8.4,8.7 -8.4,85.3 0,49 23.4,133.3 23.4,203.3 8.9,3.3 23.3,10 60.3,10 z"
   id="path6812"
   inkscape:connector-curvature="0"
   style="display:inline;fill:none;stroke:#d0d2d3;stroke-width:10" />
	<path
   display="inline"
   d="m 116,66 c -0.8,11.6 -1.3,36.5 -1.3,55.7 0,58.3 21.4,118.3 21.4,188.3"
   id="path6814"
   inkscape:connector-curvature="0"
   style="display:inline;fill:none;stroke:#ffffff;stroke-width:10;stroke-linecap:round" />
</g>
<g
   id="Quadrupel"
   display="none"
   style="display:none"
   transform="translate(-89,-24.1)">
	<polygon
   display="inline"
   points="93,114.7 180,108.7 266.5,114.7 266.5,147.5 93,147.5 "
   id="polygon6817"
   style="display:inline;fill:#ffffff" />
	<path
   display="inline"
   d="m 269.7,160.2 c 0,-12.4 1.7,-7.1 -4.7,-20.2 H 93 c -6.1,13.1 -3.3,7.8 -3.3,20.2 0,48.3 33.7,87.5 90,87.5 56.3,0 90,-39.2 90,-87.5 z"
   id="path6819"
   inkscape:connector-curvature="0"
   style="display:inline;fill:#943400" />
	<path
   display="inline"
   d="m 264.7,114.5 c 0,0 4.9,14.7 4.9,45.7 0,48.3 -33.7,87.5 -90,87.5 -56.3,0 -90,-39.2 -90,-87.5 0,-30.2 3,-44.6 3,-44.6 0,0 22.2,-5.9 87,-5.9 64.8,0 85.1,4.8 85.1,4.8 z"
   id="path6821"
   inkscape:connector-curvature="0"
   style="display:inline;fill:none;stroke:#d0d2d3;stroke-width:10" />
	<line
   display="inline"
   x1="179.7"
   y1="247.7"
   x2="179.7"
   y2="318.39999"
   id="line6823"
   style="display:inline;fill:none;stroke:#d0d2d3;stroke-width:25" />
	<path
   display="inline"
   d="m 247.2,328.6 c 0,7 -30.2,9.2 -67.5,9.2 -37.3,0 -67.5,-2.2 -67.5,-9.2 0,-7 67.5,-8.5 67.5,-21.9 0.1,13.4 67.5,14.9 67.5,21.9 z"
   id="path6825"
   inkscape:connector-curvature="0"
   style="display:inline;fill:#d0d2d3" />
	<path
   display="inline"
   d="m 200.1,284 c 0,-5.7 -2.6,-10.7 -6.8,-14.2 -0.7,-0.7 -1.2,-1.7 -1.2,-2.8 H 189 c -2.8,-1.4 -6,-2.2 -9.4,-2.2 -3.4,0 -6.6,0.8 -9.4,2.2 h -3.1 c 0,1.1 -0.5,2.1 -1.2,2.8 -4.1,3.5 -6.8,8.5 -6.8,14.2 0,5.6 2.6,10.6 6.6,14.1 0.8,0.7 1.3,1.8 1.3,2.9 h 3.2 c 2.8,1.3 6,2.1 9.3,2.1 3.3,0 6.5,-0.8 9.3,-2.1 h 3.2 c 0,-1.1 0.5,-2.2 1.3,-2.9 4.2,-3.5 6.8,-8.5 6.8,-14.1 z"
   id="path6827"
   inkscape:connector-curvature="0"
   style="display:inline;fill:#d0d2d3" />
	<path
   display="inline"
   d="m 178.7,232.8 c -45.7,-1 -73,-33.3 -73,-73 0,-10.7 0.4,-19 1,-25.1"
   id="path6829"
   inkscape:connector-curvature="0"
   style="display:inline;fill:none;stroke:#ffffff;stroke-width:10;stroke-linecap:round" />
</g>
<g
   id="Red_Ale"
   display="none"
   style="display:none"
   transform="translate(-89,-24.1)">
	<polygon
   display="inline"
   points="260.9,101 255.1,39 206.1,30 153.1,30 101.5,36.1 94.4,101.8 "
   id="polygon6832"
   style="display:inline;fill:#ffffff" />
	<path
   display="inline"
   d="M 260.6,74.6 H 93.9 l 2.4,85.7 18.4,118 5.3,42.8 c 0,0 13.6,9.6 59.8,9.6 46.2,0 59.8,-9.6 59.8,-9.6 l 2.5,-48 19.3,-121.6 z"
   id="path6834"
   inkscape:connector-curvature="0"
   style="display:inline;fill:#a13800" />
	<path
   display="inline"
   d="m 177.7,335.7 c 37,0 51.5,-6.7 60.3,-10 0,-70 23.4,-154.3 23.4,-203.3 0,-76.7 -8.4,-85.3 -8.4,-85.3 0,0 -9.3,-8 -75.3,-8 v 0 c -66,0 -75.3,8 -75.3,8 0,0 -8.4,8.7 -8.4,85.3 0,49 23.4,133.3 23.4,203.3 8.9,3.3 23.3,10 60.3,10 z"
   id="path6836"
   inkscape:connector-curvature="0"
   style="display:inline;fill:none;stroke:#d0d2d3;stroke-width:10" />
	<path
   display="inline"
   d="m 116,66 c -0.8,11.6 -1.3,36.5 -1.3,55.7 0,58.3 21.4,118.3 21.4,188.3"
   id="path6838"
   inkscape:connector-curvature="0"
   style="display:inline;fill:none;stroke:#ffffff;stroke-width:10;stroke-linecap:round" />
</g>
<g
   id="Roggenbier"
   display="none"
   style="display:none"
   transform="translate(-89,-24.1)">
	<polygon
   display="inline"
   points="124.5,23.5 235,23.5 247,94.5 113.5,94.5 "
   id="polygon6841"
   style="display:inline;fill:#ffffff" />
	<path
   display="inline"
   d="m 235.3,330.9 c -3.9,-40.3 -9.1,-44.2 -9.1,-92.2 0,-48 21,-89.2 21,-116.4 0,-17.4 -0.9,-34.5 -2.9,-50.9 h -128 c -2,16.4 -2.9,33.5 -2.9,50.9 0,27.3 21,68.3 21,116.4 0,48.1 -5.2,52 -9.1,92.2 26.1,11.7 83.8,11.7 110,0 z"
   id="path6843"
   inkscape:connector-curvature="0"
   style="display:inline;fill:#b55b1a" />
	<path
   display="inline"
   d="m 125.2,330.9 c 3.9,-40.3 9.1,-44.2 9.1,-92.2 0,-48 -21,-89 -21,-116.4 0,-34.6 3.7,-68 12,-97.2 7.4,-1.4 31.7,-4.1 55.7,-4.1 23.5,0 46.9,2.7 54.1,4.1 8.4,29.3 12,62.6 12,97.2 0,27.2 -21,68.3 -21,116.4 0,48.1 5.2,52 9.1,92.2 -26.1,11.7 -83.8,11.7 -110,0 z"
   id="path6845"
   inkscape:connector-curvature="0"
   style="display:inline;fill:none;stroke:#d0d2d3;stroke-width:10" />
	<path
   display="inline"
   d="m 145.6,314 c 0,0 6.1,-28.2 6.1,-76.2 0,-48.1 -18,-90 -18,-117.4 0,-19.8 1.2,-48.2 3.8,-66.7"
   id="path6847"
   inkscape:connector-curvature="0"
   style="display:inline;fill:none;stroke:#fbfeff;stroke-width:10;stroke-linecap:round" />
</g>
<g
   id="Saison"
   display="none"
   style="display:none"
   transform="translate(-89,-24.1)">
	<polygon
   display="inline"
   points="120.9,65.4 118.6,44.5 179.7,39.7 238.7,44.5 238.7,68.5 244.6,97.7 173.5,104 115,87.5 "
   id="polygon6850"
   style="display:inline;fill:#ffffff" />
	<path
   display="inline"
   d="m 99.7,160.2 c 0,48.3 31.3,77.5 80,77.5 48.7,0 80,-29.2 80,-77.5 0,-19.6 -11.5,-46.5 -18,-72.6 H 116 c -5.8,26.3 -16.3,53.4 -16.3,72.6 z"
   id="path6852"
   inkscape:connector-curvature="0"
   style="display:inline;fill:#fcca00" />
	<path
   display="inline"
   d="m 238.7,44.5 c -7.8,35.8 20.9,84.7 20.9,115.7 0,48.3 -31.3,77.5 -80,77.5 -48.7,0 -80,-29.2 -80,-77.5 0,-30.2 26,-79.9 19,-115.7 15.2,-1.9 23.5,-4.8 61,-4.8 37.5,0 45.9,2.3 59.1,4.8 z"
   id="path6854"
   inkscape:connector-curvature="0"
   style="display:inline;fill:none;stroke:#d0d2d3;stroke-width:10" />
	<path
   display="inline"
   d="m 145.2,210.4 c -15.7,-11.5 -25.7,-25.3 -25.7,-49.5 0,-26.4 23.7,-74.7 17.6,-106"
   id="path6856"
   inkscape:connector-curvature="0"
   style="display:inline;fill:none;stroke:#ffffff;stroke-width:10;stroke-linecap:round" />
	<line
   display="inline"
   x1="179.7"
   y1="237.7"
   x2="179.7"
   y2="316"
   id="line6858"
   style="display:inline;fill:none;stroke:#d0d2d3;stroke-width:15" />
	<path
   display="inline"
   d="m 244.6,324.7 c 0,6 -29,10.9 -64.8,10.9 -35.8,0 -64.8,-4.9 -64.8,-10.9 0,-6 64.8,-11.3 64.8,-22.9 0,11.6 64.8,16.9 64.8,22.9 z"
   id="path6860"
   inkscape:connector-curvature="0"
   style="display:inline;fill:#d0d2d3" />
</g>
<g
   id="Sahti"
   display="none"
   style="display:none"
   transform="translate(-89,-24.1)">
	<g
   display="inline"
   id="g6875"
   style="display:inline">
		<polygon
   points="179.7,19.7 243.7,24.5 251.1,67 109.5,71.8 113.6,24.5 "
   id="polygon6863"
   style="fill:#ffffff" />
		<path
   d="m 102.7,100.2 c 0,46.3 3.6,152 69.3,157.2 2.5,0.2 12.6,0.2 14.9,0 66.1,-5 69.7,-110.8 69.7,-157.2 0,-19.6 1.5,-16.5 -5,-42.6 H 106 c -5.8,26.3 -3.3,23.4 -3.3,42.6 z"
   id="path6865"
   inkscape:connector-curvature="0"
   style="fill:#ff9900" />
		<path
   d="m 243.7,24.5 c 0,0 12.9,44.7 12.9,75.7 0,46.8 -23,157.2 -59.7,157.2 -2.4,0 -32.5,0 -34.9,0 -37.2,0 -59.3,-110.5 -59.3,-157.2 0,-30.2 11,-75.7 11,-75.7 0,0 28.5,-4.8 66,-4.8 37.5,0 64,4.8 64,4.8 z"
   id="path6867"
   inkscape:connector-curvature="0"
   style="fill:none;stroke:#d0d2d3;stroke-width:10" />
		<path
   d="M 147.2,222.4 C 131.1,177.8 121.5,146 121.5,100.9 c 0,-29.9 7.6,-66 7.6,-66"
   id="path6869"
   inkscape:connector-curvature="0"
   style="fill:none;stroke:#ffffff;stroke-width:10;stroke-linecap:round" />
		<line
   x1="179.7"
   y1="257.70001"
   x2="179.7"
   y2="316"
   id="line6871"
   style="fill:none;stroke:#d0d2d3;stroke-width:15" />
		<path
   d="m 244.6,324.7 c 0,6 -29,10.9 -64.8,10.9 -35.8,0 -64.8,-4.9 -64.8,-10.9 0,-6 64.8,-11.3 64.8,-22.9 0,11.6 64.8,16.9 64.8,22.9 z"
   id="path6873"
   inkscape:connector-curvature="0"
   style="fill:#d0d2d3" />
	</g>
</g>
<g
   id="Schwarzbier"
   display="none"
   style="display:none"
   transform="translate(-89,-24.1)">
	<g
   display="inline"
   id="g6890"
   style="display:inline">
		<polygon
   points="179.7,19.7 233.7,24.5 253.7,78.5 105.7,79.3 123.6,24.5 "
   id="polygon6878"
   style="fill:#ffffff" />
		<path
   d="m 101.7,120.2 c 0,48.3 29.3,137.5 78,137.5 48.7,0 78,-89.2 78,-137.5 0,-19.6 -3.5,-36.5 -10,-62.6 H 112 c -5.8,26.3 -10.3,43.4 -10.3,62.6 z"
   id="path6880"
   inkscape:connector-curvature="0"
   style="fill:#471500" />
		<path
   d="m 233.7,24.5 c 0,0 23.9,41.2 23.9,95.7 0,48.3 -29.3,137.5 -78,137.5 -48.7,0 -78,-89.2 -78,-137.5 0,-54.5 22,-95.7 22,-95.7 0,0 18.5,-4.8 56,-4.8 37.5,0 54.1,4.8 54.1,4.8 z"
   id="path6882"
   inkscape:connector-curvature="0"
   style="fill:none;stroke:#d0d2d3;stroke-width:10" />
		<path
   d="M 159.2,226.4 C 133.7,193 122.5,159.7 122.5,120.9 c 0,-38.8 14.6,-86 14.6,-86"
   id="path6884"
   inkscape:connector-curvature="0"
   style="fill:none;stroke:#ffffff;stroke-width:10;stroke-linecap:round" />
		<line
   x1="179.7"
   y1="257.70001"
   x2="179.7"
   y2="316"
   id="line6886"
   style="fill:none;stroke:#d0d2d3;stroke-width:15" />
		<path
   d="m 244.6,324.7 c 0,6 -29,10.9 -64.8,10.9 -35.8,0 -64.8,-4.9 -64.8,-10.9 0,-6 64.8,-11.3 64.8,-22.9 0,11.6 64.8,16.9 64.8,22.9 z"
   id="path6888"
   inkscape:connector-curvature="0"
   style="fill:#d0d2d3" />
	</g>
</g>
<g
   id="Stout"
   transform="translate(-89,-24.1)">
	<polygon
   points="260.9,101 255.1,39 206.1,30 153.1,30 101.5,36.1 94.4,101.8 "
   id="polygon6893"
   style="fill:#ffffff" />
	<path
   d="M 260.6,74.6 H 93.9 l 2.4,85.7 18.4,118 5.3,42.8 c 0,0 13.6,9.6 59.8,9.6 46.2,0 59.8,-9.6 59.8,-9.6 l 2.5,-48 19.3,-121.6 z"
   id="path6895"
   inkscape:connector-curvature="0"
   style="fill:#241000" />
	<path
   d="m 177.7,335.7 c 37,0 51.5,-6.7 60.3,-10 0,-70 23.4,-154.3 23.4,-203.3 0,-76.7 -8.4,-85.3 -8.4,-85.3 0,0 -9.3,-8 -75.3,-8 v 0 c -66,0 -75.3,8 -75.3,8 0,0 -8.4,8.7 -8.4,85.3 0,49 23.4,133.3 23.4,203.3 8.9,3.3 23.3,10 60.3,10 z"
   id="path6897"
   inkscape:connector-curvature="0"
   style="fill:none;stroke:#d0d2d3;stroke-width:10" />
	<path
   d="m 116,66 c -0.8,11.6 -1.3,36.5 -1.3,55.7 0,58.3 21.4,118.3 21.4,188.3"
   id="path6899"
   inkscape:connector-curvature="0"
   style="fill:none;stroke:#ffffff;stroke-width:10;stroke-linecap:round" />
</g>
<g
   id="Tripel"
   display="none"
   style="display:none"
   transform="translate(-89,-24.1)">
	<polygon
   display="inline"
   points="93,114.7 180,108.7 266.5,114.7 266.5,147.5 93,147.5 "
   id="polygon6902"
   style="display:inline;fill:#ffffff" />
	<path
   display="inline"
   d="m 269.7,160.2 c 0,-12.4 1.7,-7.1 -4.7,-20.2 H 93 c -6.1,13.1 -3.3,7.8 -3.3,20.2 0,48.3 33.7,87.5 90,87.5 56.3,0 90,-39.2 90,-87.5 z"
   id="path6904"
   inkscape:connector-curvature="0"
   style="display:inline;fill:#f2ae00" />
	<path
   display="inline"
   d="m 264.7,114.5 c 0,0 4.9,14.7 4.9,45.7 0,48.3 -33.7,87.5 -90,87.5 -56.3,0 -90,-39.2 -90,-87.5 0,-30.2 3,-44.6 3,-44.6 0,0 22.2,-5.9 87,-5.9 64.8,0 85.1,4.8 85.1,4.8 z"
   id="path6906"
   inkscape:connector-curvature="0"
   style="display:inline;fill:none;stroke:#d0d2d3;stroke-width:10" />
	<line
   display="inline"
   x1="179.7"
   y1="247.7"
   x2="179.7"
   y2="318.39999"
   id="line6908"
   style="display:inline;fill:none;stroke:#d0d2d3;stroke-width:25" />
	<path
   display="inline"
   d="m 247.2,328.6 c 0,7 -30.2,9.2 -67.5,9.2 -37.3,0 -67.5,-2.2 -67.5,-9.2 0,-7 67.5,-8.5 67.5,-21.9 0.1,13.4 67.5,14.9 67.5,21.9 z"
   id="path6910"
   inkscape:connector-curvature="0"
   style="display:inline;fill:#d0d2d3" />
	<path
   display="inline"
   d="m 200.1,284 c 0,-5.7 -2.6,-10.7 -6.8,-14.2 -0.7,-0.7 -1.2,-1.7 -1.2,-2.8 H 189 c -2.8,-1.4 -6,-2.2 -9.4,-2.2 -3.4,0 -6.6,0.8 -9.4,2.2 h -3.1 c 0,1.1 -0.5,2.1 -1.2,2.8 -4.1,3.5 -6.8,8.5 -6.8,14.2 0,5.6 2.6,10.6 6.6,14.1 0.8,0.7 1.3,1.8 1.3,2.9 h 3.2 c 2.8,1.3 6,2.1 9.3,2.1 3.3,0 6.5,-0.8 9.3,-2.1 h 3.2 c 0,-1.1 0.5,-2.2 1.3,-2.9 4.2,-3.5 6.8,-8.5 6.8,-14.1 z"
   id="path6912"
   inkscape:connector-curvature="0"
   style="display:inline;fill:#d0d2d3" />
	<path
   display="inline"
   d="m 178.7,232.8 c -45.7,-1 -73,-33.3 -73,-73 0,-10.7 0.4,-19 1,-25.1"
   id="path6914"
   inkscape:connector-curvature="0"
   style="display:inline;fill:none;stroke:#ffffff;stroke-width:10;stroke-linecap:round" />
</g>
<g
   id="Weissbier"
   display="none"
   style="display:none"
   transform="translate(-89,-24.1)">
	<polygon
   display="inline"
   points="124.5,23.5 235,23.5 247,94.5 113.5,94.5 "
   id="polygon6917"
   style="display:inline;fill:#ffffff" />
	<path
   display="inline"
   d="m 235.3,330.9 c -3.9,-40.3 -9.1,-44.2 -9.1,-92.2 0,-48 21,-89.2 21,-116.4 0,-17.4 -0.9,-34.5 -2.9,-50.9 h -128 c -2,16.4 -2.9,33.5 -2.9,50.9 0,27.3 21,68.3 21,116.4 0,48.1 -5.2,52 -9.1,92.2 26.1,11.7 83.8,11.7 110,0 z"
   id="path6919"
   inkscape:connector-curvature="0"
   style="display:inline;fill:#ffc414" />
	<path
   display="inline"
   d="m 125.2,330.9 c 3.9,-40.3 9.1,-44.2 9.1,-92.2 0,-48 -21,-89 -21,-116.4 0,-34.6 3.7,-68 12,-97.2 7.4,-1.4 31.7,-4.1 55.7,-4.1 23.5,0 46.9,2.7 54.1,4.1 8.4,29.3 12,62.6 12,97.2 0,27.2 -21,68.3 -21,116.4 0,48.1 5.2,52 9.1,92.2 -26.1,11.7 -83.8,11.7 -110,0 z"
   id="path6921"
   inkscape:connector-curvature="0"
   style="display:inline;fill:none;stroke:#d0d2d3;stroke-width:10" />
	<path
   display="inline"
   d="m 145.6,314 c 0,0 6.1,-28.2 6.1,-76.2 0,-48.1 -18,-90 -18,-117.4 0,-19.8 1.2,-48.2 3.8,-66.7"
   id="path6923"
   inkscape:connector-curvature="0"
   style="display:inline;fill:none;stroke:#fbfeff;stroke-width:10;stroke-linecap:round" />
</g>
<g
   id="Witbier"
   display="none"
   style="display:none"
   transform="translate(-89,-24.1)">
	<polygon
   display="inline"
   points="120.9,65.4 118.6,44.5 179.7,39.7 238.7,44.5 238.7,68.5 244.6,97.7 173.5,104 115,87.5 "
   id="polygon6926"
   style="display:inline;fill:#ffffff" />
	<path
   display="inline"
   d="m 99.7,160.2 c 0,48.3 31.3,77.5 80,77.5 48.7,0 80,-29.2 80,-77.5 0,-19.6 -11.5,-46.5 -18,-72.6 H 116 c -5.8,26.3 -16.3,53.4 -16.3,72.6 z"
   id="path6928"
   inkscape:connector-curvature="0"
   style="display:inline;fill:#fcdf6c" />
	<path
   display="inline"
   d="m 238.7,44.5 c -7.8,35.8 20.9,84.7 20.9,115.7 0,48.3 -31.3,77.5 -80,77.5 -48.7,0 -80,-29.2 -80,-77.5 0,-30.2 26,-79.9 19,-115.7 15.2,-1.9 23.5,-4.8 61,-4.8 37.5,0 45.9,2.3 59.1,4.8 z"
   id="path6930"
   inkscape:connector-curvature="0"
   style="display:inline;fill:none;stroke:#d0d2d3;stroke-width:10" />
	<path
   display="inline"
   d="m 145.2,210.4 c -15.7,-11.5 -25.7,-25.3 -25.7,-49.5 0,-26.4 23.7,-74.7 17.6,-106"
   id="path6932"
   inkscape:connector-curvature="0"
   style="display:inline;fill:none;stroke:#ffffff;stroke-width:10;stroke-linecap:round" />
	<line
   display="inline"
   x1="179.7"
   y1="237.7"
   x2="179.7"
   y2="316"
   id="line6934"
   style="display:inline;fill:none;stroke:#d0d2d3;stroke-width:15" />
	<path
   display="inline"
   d="m 244.6,324.7 c 0,6 -29,10.9 -64.8,10.9 -35.8,0 -64.8,-4.9 -64.8,-10.9 0,-6 64.8,-11.3 64.8,-22.9 0,11.6 64.8,16.9 64.8,22.9 z"
   id="path6936"
   inkscape:connector-curvature="0"
   style="display:inline;fill:#d0d2d3" />
</g>
</svg>